<?xml version="1.0" encoding="utf-8"?>
<!-- Generator: Adobe Illustrator 19.2.0, SVG Export Plug-In . SVG Version: 6.00 Build 0)  -->
<svg version="1.1" id="Layer_1" xmlns="http://www.w3.org/2000/svg" xmlns:xlink="http://www.w3.org/1999/xlink" x="0px" y="0px"
	 viewBox="0 0 482.5 180.5" style="enable-background:new 0 0 482.5 180.5;" xml:space="preserve">
<style type="text/css">
	.st0{display:none;}
	.st1{display:inline;}
	.st2{clip-path:url(#SVGID_2_);}
	.st3{fill:#000017;}
</style>
<g id="Background" class="st0">
</g>
<g id="Dump_i_baggrunden" class="st0">
	<g class="st1">
		<g>
			<g>
				<defs>
					<rect id="SVGID_1_" x="-19.9" y="-15.1" width="508.6" height="256.5"/>
				</defs>
				<clipPath id="SVGID_2_">
					<use xlink:href="#SVGID_1_"  style="overflow:visible;"/>
				</clipPath>
				<g transform="matrix(1 0 0 1 -1.907349e-06 -9.536743e-07)" class="st2">
				</g>
			</g>
		</g>
	</g>
</g>
<g id="Guides">
</g>
<g id="Foreground">
	<path d="M234.5,121.4c-1.9-9.2-11.3-15.4-22.4-15.4c-10.8,0-19.3,6-22.3,15.4H234.5z M212.9,159.2c10.2,0,18.3-6.4,21.8-12.2
		l20.6,12.6c-9.2,12.8-22.6,20.9-42.1,20.9c-29.9,0-49.7-19.6-49.7-48.6c0-27.9,21.7-46.7,50.2-46.7c28.6,0,47.2,21.2,47.2,51.4v3.2
		H189C190.8,151.8,200.7,159.2,212.9,159.2z"/>
	<path d="M388.8,180.5c-36.9,0-67-30.2-67-67.7c0-37.3,30-67.7,67-67.7c24.4,0,45.8,13.1,57.6,32.9l-23.7,14
		c-6.7-11.1-19.8-19.3-33.9-19.3c-21.2,0-39.8,18.7-39.8,40.1c0,21.6,18.6,40.1,39.8,40.1c14.1,0,27.4-8,33.9-19.6l23.9,14.1
		C434.7,167.2,413.3,180.5,388.8,180.5z"/>
	<path d="M87.6,48.6H36.2v25.3l52.5,0c21.6,0,36.8,16.1,36.8,39.1c0,25.1-15.4,39.1-37.1,39.1H63.2V85.9h-27v91.4h51.4
		c40.5,0,65.4-27.4,65.4-64.3C153,75.1,128.3,48.6,87.6,48.6z"/>
	<rect x="277.4" y="48.6" width="27.3" height="25.3"/>
	<rect x="277.4" y="85.9" width="27.3" height="91.4"/>
	<path class="st3" d="M245.3,53.1c-2-1.6-37-15.8-70.9,2.7C159.8,37.6,122.7-10.4,0,8.7c0,0,121.9-35.5,177.2,36.9
		c0,0,28.5-15.1,62.3-2.7c0,0,6.4-24,34.9-33.8c30.9-10.6,56,12.1,56,12.1c0.8-0.6,74.4-54.3,152.1,18.1c0,0-77.7-63.6-153.1-7.1
		c0,0-19.8-25.1-51.2-15.9C250.9,24.3,245.7,50.7,245.3,53.1z"/>
</g>
</svg>
